<svg width="54" height="64" viewBox="0 0 54 64" fill="none" xmlns="http://www.w3.org/2000/svg">
<path fill-rule="evenodd" clip-rule="evenodd" d="M30.9827 1.33896C32.7553 -0.446321 35.6291 -0.446321 37.4016 1.33896L54 18.0571L37.3261 34.0879C35.5128 35.8311 32.6399 35.7639 30.909 33.9376C29.1782 32.1113 29.245 29.2175 31.0583 27.4743L36.1777 22.5525H25.1146C16.2576 22.5525 9.07751 29.7842 9.07751 38.7049C9.07751 47.6256 16.2576 54.8573 25.1146 54.8573H47.506C50.0123 54.8573 52.0452 56.9038 52.0452 59.4291C52.0452 61.9534 50.0123 64 47.506 64H25.1146C11.2441 64 0 52.6752 0 38.7049C0 24.7347 11.2441 13.4096 25.1146 13.4096H36.5484L30.9827 7.80399C29.2103 6.01871 29.2103 3.12425 30.9827 1.33896Z" fill="#1F8459"/>
</svg>
